<svg width="31" height="30" viewBox="0 0 31 30" fill="none" xmlns="http://www.w3.org/2000/svg">
<path d="M6.82343 0C7.07207 0 7.31052 0.0987721 7.48634 0.274587C7.66215 0.450403 7.76093 0.68886 7.76093 0.9375V1.875H22.7609V0.9375C22.7609 0.68886 22.8597 0.450403 23.0355 0.274587C23.2113 0.0987721 23.4498 0 23.6984 0C23.9471 0 24.1855 0.0987721 24.3613 0.274587C24.5372 0.450403 24.6359 0.68886 24.6359 0.9375V1.875H26.5109C27.5055 1.875 28.4593 2.27009 29.1626 2.97335C29.8658 3.67661 30.2609 4.63044 30.2609 5.625V26.25C30.2609 27.2446 29.8658 28.1984 29.1626 28.9016C28.4593 29.6049 27.5055 30 26.5109 30H4.01093C3.01636 30 2.06254 29.6049 1.35927 28.9016C0.656014 28.1984 0.260925 27.2446 0.260925 26.25V5.625C0.260925 4.63044 0.656014 3.67661 1.35927 2.97335C2.06254 2.27009 3.01636 1.875 4.01093 1.875H5.88593V0.9375C5.88593 0.68886 5.9847 0.450403 6.16051 0.274587C6.33633 0.0987721 6.57478 0 6.82343 0V0ZM2.13593 7.5V26.25C2.13593 26.7473 2.33347 27.2242 2.6851 27.5758C3.03673 27.9275 3.51364 28.125 4.01093 28.125H26.5109C27.0082 28.125 27.4851 27.9275 27.8368 27.5758C28.1884 27.2242 28.3859 26.7473 28.3859 26.25V7.5H2.13593Z" fill="#60656C"/>
</svg>
