<svg width="24" height="26" viewBox="0 0 24 26" fill="none" xmlns="http://www.w3.org/2000/svg">
<path d="M7.83446 3.28042C7.4662 3.28042 7.11303 3.42671 6.85264 3.68711C6.59224 3.94751 6.44595 4.30068 6.44595 4.66893C6.44595 5.03719 6.59224 5.39036 6.85264 5.65076C7.11303 5.91116 7.4662 6.05745 7.83446 6.05745C8.20272 6.05745 8.55589 5.91116 8.81629 5.65076C9.07668 5.39036 9.22297 5.03719 9.22297 4.66893C9.22297 4.30068 9.07668 3.94751 8.81629 3.68711C8.55589 3.42671 8.20272 3.28042 7.83446 3.28042ZM3.90498 3.28042C4.19184 2.46741 4.72383 1.76338 5.42762 1.2654C6.1314 0.767421 6.97232 0.5 7.83446 0.5C8.6966 0.5 9.53752 0.767421 10.2413 1.2654C10.9451 1.76338 11.4771 2.46741 11.7639 3.28042H21.7196C22.0878 3.28042 22.441 3.42671 22.7014 3.68711C22.9618 3.94751 23.1081 4.30068 23.1081 4.66893C23.1081 5.03719 22.9618 5.39036 22.7014 5.65076C22.441 5.91116 22.0878 6.05745 21.7196 6.05745H11.7639C11.4771 6.87046 10.9451 7.57449 10.2413 8.07247C9.53752 8.57045 8.6966 8.83787 7.83446 8.83787C6.97232 8.83787 6.1314 8.57045 5.42762 8.07247C4.72383 7.57449 4.19184 6.87046 3.90498 6.05745H2.28042C1.91216 6.05745 1.55899 5.91116 1.29859 5.65076C1.0382 5.39036 0.891907 5.03719 0.891907 4.66893C0.891907 4.30068 1.0382 3.94751 1.29859 3.68711C1.55899 3.42671 1.91216 3.28042 2.28042 3.28042H3.90498ZM16.1655 11.6115C15.7973 11.6115 15.4441 11.7578 15.1837 12.0182C14.9233 12.2786 14.777 12.6317 14.777 13C14.777 13.3683 14.9233 13.7214 15.1837 13.9818C15.4441 14.2422 15.7973 14.3885 16.1655 14.3885C16.5338 14.3885 16.887 14.2422 17.1474 13.9818C17.4077 13.7214 17.554 13.3683 17.554 13C17.554 12.6317 17.4077 12.2786 17.1474 12.0182C16.887 11.7578 16.5338 11.6115 16.1655 11.6115ZM12.236 11.6115C12.5229 10.7985 13.0549 10.0944 13.7587 9.59647C14.4625 9.09848 15.3034 8.83106 16.1655 8.83106C17.0277 8.83106 17.8686 9.09848 18.5724 9.59647C19.2761 10.0944 19.8081 10.7985 20.095 11.6115H21.7196C22.0878 11.6115 22.441 11.7578 22.7014 12.0182C22.9618 12.2786 23.1081 12.6317 23.1081 13C23.1081 13.3683 22.9618 13.7214 22.7014 13.9818C22.441 14.2422 22.0878 14.3885 21.7196 14.3885H20.095C19.8081 15.2015 19.2761 15.9056 18.5724 16.4035C17.8686 16.9015 17.0277 17.1689 16.1655 17.1689C15.3034 17.1689 14.4625 16.9015 13.7587 16.4035C13.0549 15.9056 12.5229 15.2015 12.236 14.3885H2.28042C1.91216 14.3885 1.55899 14.2422 1.29859 13.9818C1.0382 13.7214 0.891907 13.3683 0.891907 13C0.891907 12.6317 1.0382 12.2786 1.29859 12.0182C1.55899 11.7578 1.91216 11.6115 2.28042 11.6115H12.236ZM7.83446 19.9426C7.4662 19.9426 7.11303 20.0888 6.85264 20.3492C6.59224 20.6096 6.44595 20.9628 6.44595 21.3311C6.44595 21.6993 6.59224 22.0525 6.85264 22.3129C7.11303 22.5733 7.4662 22.7196 7.83446 22.7196C8.20272 22.7196 8.55589 22.5733 8.81629 22.3129C9.07668 22.0525 9.22297 21.6993 9.22297 21.3311C9.22297 20.9628 9.07668 20.6096 8.81629 20.3492C8.55589 20.0888 8.20272 19.9426 7.83446 19.9426ZM3.90498 19.9426C4.19184 19.1295 4.72383 18.4255 5.42762 17.9275C6.1314 17.4295 6.97232 17.1621 7.83446 17.1621C8.6966 17.1621 9.53752 17.4295 10.2413 17.9275C10.9451 18.4255 11.4771 19.1295 11.7639 19.9426H21.7196C22.0878 19.9426 22.441 20.0888 22.7014 20.3492C22.9618 20.6096 23.1081 20.9628 23.1081 21.3311C23.1081 21.6993 22.9618 22.0525 22.7014 22.3129C22.441 22.5733 22.0878 22.7196 21.7196 22.7196H11.7639C11.4771 23.5326 10.9451 24.2366 10.2413 24.7346C9.53752 25.2326 8.6966 25.5 7.83446 25.5C6.97232 25.5 6.1314 25.2326 5.42762 24.7346C4.72383 24.2366 4.19184 23.5326 3.90498 22.7196H2.28042C1.91216 22.7196 1.55899 22.5733 1.29859 22.3129C1.0382 22.0525 0.891907 21.6993 0.891907 21.3311C0.891907 20.9628 1.0382 20.6096 1.29859 20.3492C1.55899 20.0888 1.91216 19.9426 2.28042 19.9426H3.90498Z" fill="#60656C"/>
</svg>
