<svg width="32" height="30" viewBox="0 0 32 30" fill="none" xmlns="http://www.w3.org/2000/svg">
<path d="M8.85599 16.8643L13.532 12.1883L1.93291 0.605822C0.695096 1.8472 0 3.52874 0 5.28179C0 7.03485 0.695096 8.71638 1.93291 9.95776L8.85599 16.8643ZM20.0585 13.8737C22.5865 15.0468 26.1389 14.2207 28.766 11.5935C31.9219 8.43766 32.5332 3.91039 30.1044 1.48153C27.6921 -0.930805 23.1648 -0.335981 19.9924 2.81989C17.3653 5.44702 16.5391 8.99944 17.7122 11.5274L1.58593 27.6538L3.91565 29.9835L15.2999 18.6323L26.6676 30L28.9974 27.6703L17.6296 16.3025L20.0585 13.8737Z" fill="#CB6F4D"/>
</svg>
