<svg width="26" height="26" viewBox="0 0 26 26" fill="none" xmlns="http://www.w3.org/2000/svg">
<path d="M11.1913 21.8812C13.5632 21.8807 15.8668 21.0867 17.7353 19.6255L23.6098 25.5L25.4993 23.6104L19.6248 17.7359C21.0868 15.8673 21.8813 13.5632 21.8819 11.1906C21.8819 5.29608 17.0858 0.5 11.1913 0.5C5.29675 0.5 0.500671 5.29608 0.500671 11.1906C0.500671 17.0851 5.29675 21.8812 11.1913 21.8812ZM11.1913 3.17265C15.6132 3.17265 19.2092 6.76871 19.2092 11.1906C19.2092 15.6125 15.6132 19.2086 11.1913 19.2086C6.76938 19.2086 3.17332 15.6125 3.17332 11.1906C3.17332 6.76871 6.76938 3.17265 11.1913 3.17265Z" fill="#60656C"/>
</svg>
