<svg width="37" height="30" viewBox="0 0 37 30" fill="none" xmlns="http://www.w3.org/2000/svg">
<path d="M16.8397 1.093C17.0013 0.764951 17.2516 0.48871 17.5621 0.295544C17.8727 0.102377 18.2311 0 18.5968 0C18.9625 0 19.3209 0.102377 19.6315 0.295544C19.942 0.48871 20.1923 0.764951 20.3539 1.093L24.1346 8.75419L32.5911 9.98241C32.9529 10.0349 33.2928 10.1877 33.5723 10.4234C33.8518 10.659 34.0597 10.9682 34.1727 11.3159C34.2856 11.6637 34.2989 12.0361 34.2112 12.391C34.1235 12.7459 33.9382 13.0692 33.6763 13.3243L27.5567 19.2891L29.0024 27.7103C29.0641 28.0705 29.0238 28.4409 28.8861 28.7794C28.7483 29.1179 28.5186 29.4112 28.2229 29.626C27.9272 29.8408 27.5773 29.9686 27.2127 29.9949C26.8482 30.0212 26.4836 29.9451 26.1601 29.775L18.5988 25.7984L11.0336 29.775C10.7101 29.9445 10.3457 30.0203 9.98149 29.9937C9.61727 29.9671 9.26774 29.8392 8.97235 29.6245C8.67695 29.4098 8.44746 29.1168 8.30978 28.7785C8.1721 28.4403 8.13171 28.0703 8.19318 27.7103L9.63687 19.2871L3.51732 13.3243C3.25541 13.0692 3.07012 12.7459 2.98239 12.391C2.89467 12.0361 2.90803 11.6637 3.02095 11.3159C3.13386 10.9682 3.34184 10.659 3.62135 10.4234C3.90086 10.1877 4.24074 10.0349 4.60254 9.98241L13.059 8.75419L16.8397 1.09496V1.093ZM18.5968 1.95882L14.8162 9.62197C14.6756 9.90678 14.4679 10.1531 14.2109 10.3398C13.9539 10.5265 13.6554 10.6478 13.3411 10.6935L4.88266 11.9217L11.0022 17.8865C11.2294 18.1083 11.3993 18.3819 11.4972 18.6839C11.5951 18.9859 11.6182 19.3072 11.5644 19.6201L10.1207 28.0414L17.682 24.0648C17.9632 23.9169 18.2761 23.8396 18.5939 23.8396C18.9116 23.8396 19.2245 23.9169 19.5057 24.0648L27.069 28.0414L25.6253 19.6182C25.5718 19.3056 25.595 18.9847 25.693 18.683C25.7909 18.3814 25.9606 18.1081 26.1875 17.8865L32.307 11.9217L23.8505 10.6935C23.5366 10.6475 23.2385 10.526 22.9819 10.3394C22.7253 10.1527 22.5178 9.90653 22.3774 9.62197L18.5968 1.95882Z" fill="#60656C"/>
<path d="M7.60558 20.2685C7.76739 20.4712 7.84218 20.7298 7.81353 20.9876C7.78489 21.2454 7.65515 21.4814 7.45278 21.6436L2.55558 25.5614C2.45612 25.6489 2.33993 25.7154 2.21404 25.7568C2.08815 25.7981 1.95517 25.8135 1.82316 25.802C1.69116 25.7905 1.56286 25.7523 1.44604 25.6897C1.32921 25.6272 1.2263 25.5416 1.14352 25.4381C1.06074 25.3346 0.99982 25.2155 0.964443 25.0878C0.929067 24.96 0.919971 24.8265 0.937707 24.6952C0.955442 24.5639 0.99964 24.4375 1.06763 24.3238C1.13561 24.21 1.22597 24.1113 1.33323 24.0334L6.23044 20.1157C6.43317 19.9539 6.6918 19.8791 6.9496 19.9077C7.2074 19.9364 7.44331 20.0661 7.60558 20.2685Z" fill="#60656C"/>
<path d="M7.45278 5.42412C7.64174 5.5905 7.75938 5.82325 7.78127 6.07406C7.80317 6.32487 7.72764 6.57449 7.57036 6.77108C7.41308 6.96768 7.18614 7.09616 6.93663 7.12986C6.68713 7.16356 6.43424 7.09988 6.23044 6.95205L1.33323 3.03428C1.22597 2.95648 1.13561 2.85771 1.06763 2.74397C0.99964 2.63023 0.955442 2.50388 0.937707 2.37256C0.919971 2.24124 0.929067 2.10769 0.964443 1.97998C0.99982 1.85228 1.06074 1.73309 1.14352 1.62961C1.2263 1.52614 1.32921 1.44054 1.44604 1.37799C1.56286 1.31545 1.69116 1.27726 1.82316 1.26573C1.95517 1.25421 2.08815 1.26959 2.21404 1.31095C2.33993 1.35231 2.45612 1.41879 2.55558 1.50636L7.45278 5.42412Z" fill="#60656C"/>
<path d="M29.5842 20.2685C29.4224 20.4712 29.3476 20.7299 29.3762 20.9877C29.4049 21.2455 29.5346 21.4814 29.737 21.6436L34.6342 25.5614C34.7336 25.649 34.8498 25.7155 34.9757 25.7568C35.1016 25.7982 35.2346 25.8136 35.3666 25.802C35.4986 25.7905 35.6269 25.7523 35.7437 25.6898C35.8605 25.6272 35.9635 25.5416 36.0462 25.4382C36.129 25.3347 36.1899 25.2155 36.2253 25.0878C36.2607 24.9601 36.2698 24.8265 36.2521 24.6952C36.2343 24.5639 36.1901 24.4375 36.1221 24.3238C36.0542 24.2101 35.9638 24.1113 35.8565 24.0335L30.9593 20.1157C30.8589 20.0353 30.7436 19.9754 30.62 19.9396C30.4964 19.9038 30.367 19.8926 30.2391 19.9068C30.1112 19.921 29.9874 19.9602 29.8747 20.0223C29.762 20.0844 29.6626 20.168 29.5822 20.2685H29.5842Z" fill="#60656C"/>
<path d="M29.737 5.42412C29.548 5.5905 29.4304 5.82325 29.4085 6.07406C29.3866 6.32487 29.4621 6.57449 29.6194 6.77108C29.7767 6.96768 30.0036 7.09616 30.2531 7.12986C30.5026 7.16356 30.7555 7.09988 30.9593 6.95205L35.8565 3.03428C35.9638 2.95648 36.0542 2.85771 36.1221 2.74397C36.1901 2.63023 36.2343 2.50388 36.2521 2.37256C36.2698 2.24124 36.2607 2.10769 36.2253 1.97998C36.19 1.85228 36.129 1.73309 36.0463 1.62961C35.9635 1.52614 35.8606 1.44054 35.7437 1.37799C35.6269 1.31545 35.4986 1.27726 35.3666 1.26573C35.2346 1.25421 35.1016 1.26959 34.9757 1.31095C34.8498 1.35231 34.7337 1.41879 34.6342 1.50636L29.737 5.42412Z" fill="#60656C"/>
</svg>
