<svg width="30" height="30" viewBox="0 0 30 30" fill="none" xmlns="http://www.w3.org/2000/svg">
<path d="M28.005 24.4824C27.2981 22.7984 26.2722 21.2687 24.9845 19.9786C23.7007 18.6848 22.1799 17.6533 20.5062 16.941C20.4912 16.9334 20.4762 16.9296 20.4612 16.9221C22.7959 15.2261 24.3137 12.4636 24.3137 9.34673C24.3137 4.18342 20.1539 0 15.0197 0C9.88559 0 5.7258 4.18342 5.7258 9.34673C5.7258 12.4636 7.24356 15.2261 9.57829 16.9259C9.5633 16.9334 9.54831 16.9372 9.53332 16.9447C7.85441 17.657 6.34789 18.6784 5.05499 19.9824C3.76849 21.2735 2.74276 22.8029 2.03446 24.4862C1.33862 26.1341 0.963337 27.9009 0.928927 29.691C0.927926 29.7312 0.934942 29.7712 0.94956 29.8087C0.964178 29.8461 0.986103 29.8802 1.01404 29.909C1.04198 29.9378 1.07537 29.9607 1.11224 29.9764C1.14911 29.992 1.18872 30 1.22873 30H3.47727C3.64216 30 3.77332 29.8681 3.77707 29.706C3.85202 26.7965 5.01376 24.0716 7.06742 22.0063C9.19229 19.8693 12.0142 18.6935 15.0197 18.6935C18.0253 18.6935 20.8472 19.8693 22.9721 22.0063C25.0257 24.0716 26.1875 26.7965 26.2624 29.706C26.2662 29.8719 26.3973 30 26.5622 30H28.8108C28.8508 30 28.8904 29.992 28.9272 29.9764C28.9641 29.9607 28.9975 29.9378 29.0254 29.909C29.0534 29.8802 29.0753 29.8461 29.0899 29.8087C29.1045 29.7712 29.1116 29.7312 29.1106 29.691C29.0731 27.8894 28.7021 26.1369 28.005 24.4824ZM15.0197 15.8291C13.2996 15.8291 11.6807 15.1545 10.4627 13.9296C9.24476 12.7048 8.57394 11.0766 8.57394 9.34673C8.57394 7.61683 9.24476 5.98869 10.4627 4.76382C11.6807 3.53894 13.2996 2.86432 15.0197 2.86432C16.7399 2.86432 18.3588 3.53894 19.5768 4.76382C20.7947 5.98869 21.4655 7.61683 21.4655 9.34673C21.4655 11.0766 20.7947 12.7048 19.5768 13.9296C18.3588 15.1545 16.7399 15.8291 15.0197 15.8291Z" fill="#60656C"/>
</svg>
